<?xml version="1.0" standalone="no"?>
<!DOCTYPE svg PUBLIC "-//W3C//DTD SVG 20010904//EN"
 "http://www.w3.org/TR/2001/REC-SVG-20010904/DTD/svg10.dtd">
<svg version="1.0" xmlns="http://www.w3.org/2000/svg"
 width="360.000000pt" height="360.000000pt" viewBox="0 0 360.000000 360.000000"
 preserveAspectRatio="xMidYMid meet">
<metadata>
Created by potrace 1.14, written by Peter Selinger 2001-2017
</metadata>
<g transform="translate(0.000000,360.000000) scale(0.100000,-0.100000)"
fill="#000000" stroke="none">
<path d="M1793 3140 c2 -125 0 -140 -26 -210 -15 -41 -30 -82 -33 -91 -4 -12
2 -18 23 -23 63 -16 172 -68 198 -96 21 -22 26 -35 21 -54 -10 -41 -53 -35
-101 14 -36 37 -42 39 -78 33 -34 -5 -42 -3 -57 17 -16 21 -19 21 -53 10 -31
-12 -39 -11 -62 4 -20 14 -38 16 -79 11 -49 -6 -54 -5 -69 19 -15 23 -24 26
-72 26 l-55 0 0 -38 c0 -42 30 -92 88 -146 l32 -29 22 29 c54 69 67 76 133 69
202 -21 389 -120 567 -297 71 -71 71 -69 52 -139 -6 -20 22 -29 93 -29 157 0
175 90 42 216 -30 28 -66 58 -81 68 -32 21 -38 42 -9 26 25 -13 32 -13 28 2
-1 6 9 14 23 18 22 5 23 7 7 13 -13 5 -16 13 -12 27 4 14 2 20 -9 20 -16 0
-46 26 -46 41 0 5 11 11 24 15 16 4 22 11 20 22 -6 27 46 92 134 166 80 67
104 106 65 106 -47 0 -94 22 -108 50 -11 22 -28 33 -67 45 -28 8 -64 15 -78
15 -52 0 -90 21 -122 67 l-31 45 -46 -7 c-99 -15 -121 -7 -121 43 0 27 -27 29
-70 7 -35 -18 -56 -11 -75 24 -12 23 -13 12 -12 -109z m375 -354 c-23 -17 -23
-26 -1 -26 15 0 14 -2 -3 -14 -10 -8 -22 -12 -26 -8 -12 12 3 51 21 55 26 7
27 7 9 -7z m-144 -86 c14 -5 26 -14 26 -19 0 -5 -13 -4 -30 2 -16 6 -30 15
-30 19 0 10 3 10 34 -2z m242 -5 c-10 -7 -15 -18 -11 -24 9 -16 -4 -13 -21 3
-19 20 -18 24 9 29 39 8 42 7 23 -8z m-81 -112 c5 -15 -14 -7 -50 21 -19 14
-18 15 12 4 18 -7 35 -18 38 -25z m108 -20 c2 -12 0 -20 -4 -17 -5 3 -9 12 -9
21 0 9 -6 13 -14 10 -15 -6 -40 16 -30 25 11 11 53 -18 57 -39z"/>
<path d="M1698 2497 c-28 -22 -33 -62 -9 -86 25 -25 49 -27 79 -5 27 19 29 64
4 87 -22 20 -51 21 -74 4z"/>
<path d="M1886 2409 c-32 -25 -34 -61 -4 -89 25 -23 65 -26 92 -5 27 21 25 73
-3 97 -30 23 -52 23 -85 -3z"/>
<path d="M1654 2291 c-79 -79 -109 -115 -54 -66 25 23 66 60 92 83 26 23 41
42 34 42 -8 0 -40 -26 -72 -59z"/>
<path d="M1798 2282 c-1 -4 -23 -18 -48 -30 -25 -12 -39 -22 -32 -22 7 0 22 5
33 10 11 7 19 7 19 1 0 -5 -6 -12 -12 -14 -10 -4 -10 -6 0 -6 16 -1 52 35 52
54 0 16 -6 20 -12 7z"/>
<path d="M437 2251 c18 -16 46 -49 63 -72 l31 -43 -27 -14 c-31 -16 -27 -26 7
-14 21 8 30 3 64 -32 22 -23 58 -55 80 -72 l40 -31 -45 -59 c-34 -44 -56 -62
-85 -71 l-40 -11 41 -1 c36 -1 51 7 110 54 58 46 71 52 84 41 8 -7 48 -39 88
-71 64 -50 76 -55 88 -43 13 12 9 18 -29 46 -35 25 -46 40 -53 73 -5 23 -16
45 -24 47 -12 4 -13 2 -4 -9 6 -8 14 -24 17 -37 7 -31 -4 -26 -99 39 -58 41
-81 64 -111 115 -20 35 -39 62 -41 60 -2 -3 8 -25 23 -50 47 -80 -6 -47 -69
43 -35 50 -37 56 -25 80 21 41 22 48 4 24 -20 -28 -30 -29 -58 -2 -12 11 -31
25 -42 30 -12 6 -7 -2 12 -20z"/>
<path d="M1685 2222 c16 -7 11 -10 -28 -16 -26 -4 -47 -12 -47 -17 0 -7 12 -8
32 -4 47 11 106 33 88 34 -8 1 -26 4 -40 6 -21 5 -22 4 -5 -3z"/>
<path d="M1381 2170 c-19 -16 -48 -30 -65 -32 -27 -3 -31 -7 -34 -34 -2 -24 5
-39 40 -76 24 -25 59 -56 78 -69 19 -12 37 -26 40 -30 7 -8 168 -85 200 -94
78 -23 89 -90 40 -232 -34 -97 -36 -121 -16 -149 12 -15 17 -17 27 -6 17 16
49 15 73 -3 11 -8 34 -15 51 -15 17 0 40 7 51 15 10 8 26 15 35 15 9 0 21 11
27 25 10 21 18 25 57 25 31 0 47 5 51 14 3 8 -14 57 -39 108 -25 51 -47 103
-50 116 -5 23 -2 25 48 22 57 -3 230 19 278 36 42 14 61 37 38 46 -5 2 -18 19
-28 38 -13 23 -30 37 -52 42 -24 7 -36 18 -47 43 -25 61 -45 67 -149 40 -67
-17 -110 -22 -165 -19 -95 5 -110 7 -104 15 9 15 -25 17 -52 3 -25 -13 -33
-13 -76 3 -61 22 -157 99 -183 147 -11 20 -24 36 -30 36 -5 -1 -25 -14 -44
-30z"/>
<path d="M1585 2179 c-4 -6 -16 -8 -28 -5 -11 3 -16 1 -11 -4 5 -5 21 -12 37
-15 21 -6 27 -4 27 8 0 20 -17 31 -25 16z"/>
<path d="M1612 2114 c4 -21 22 -23 26 -1 2 10 -3 17 -13 17 -10 0 -15 -6 -13
-16z"/>
<path d="M1834 2099 c-10 -17 13 -36 27 -22 12 12 4 33 -11 33 -5 0 -12 -5
-16 -11z"/>
<path d="M1770 2085 c0 -10 7 -15 18 -13 21 4 19 22 -2 26 -10 2 -16 -3 -16
-13z"/>
<path d="M1650 2075 c0 -10 7 -15 18 -13 21 4 19 22 -2 26 -10 2 -16 -3 -16
-13z"/>
<path d="M1714 2069 c-8 -14 18 -31 30 -19 9 9 0 30 -14 30 -5 0 -12 -5 -16
-11z"/>
<path d="M1542 1734 c-24 -17 -30 -62 -10 -82 18 -18 63 -14 83 8 23 25 13 63
-20 78 -32 15 -26 15 -53 -4z"/>
<path d="M1451 1563 c-24 -30 -20 -58 11 -85 41 -36 98 -9 98 46 0 64 -70 90
-109 39z"/>
<path d="M2066 1502 c-15 -14 -5 -73 16 -94 21 -21 23 -21 315 -14 185 4 300
3 312 -3 31 -17 121 -51 121 -46 0 2 -22 14 -50 26 -93 40 -29 46 88 9 l72
-24 1 -40 c1 -42 3 -41 13 4 5 23 9 25 63 23 l58 -2 -60 13 c-83 17 -135 36
-135 47 0 6 7 24 16 42 l15 32 -20 -25 c-11 -14 -21 -29 -21 -34 0 -5 -17 -5
-37 -1 -21 4 -153 10 -293 15 -255 8 -255 8 -362 43 -59 19 -109 32 -112 29z"/>
<path d="M1397 1398 c-9 -7 -20 -24 -25 -38 -32 -87 102 -136 138 -51 27 67
-55 132 -113 89z"/>
<path d="M1356 1178 c-32 -45 -7 -92 49 -92 56 0 81 47 49 92 -10 15 -25 22
-49 22 -24 0 -39 -7 -49 -22z"/>
<path d="M1357 1002 c-10 -10 -17 -28 -17 -39 0 -23 29 -53 51 -53 26 0 59 31
59 55 0 50 -60 73 -93 37z"/>
</g>
</svg>
